<?xml version="1.0" standalone="no"?>
<!DOCTYPE svg PUBLIC "-//W3C//DTD SVG 20010904//EN"
 "http://www.w3.org/TR/2001/REC-SVG-20010904/DTD/svg10.dtd">
<svg version="1.0" xmlns="http://www.w3.org/2000/svg"
 width="260.000000pt" height="260.000000pt" viewBox="0 0 260.000000 260.000000"
 preserveAspectRatio="xMidYMid meet">
<metadata>
Created by potrace 1.11, written by Peter Selinger 2001-2013
</metadata>
<g transform="translate(0.000000,260.000000) scale(0.100000,-0.100000)"
fill="#000000" stroke="none">
<path d="M1329 2306 c-2 -2 -35 -7 -74 -10 -92 -8 -260 -42 -360 -73 -366
-112 -615 -352 -694 -668 -19 -77 -23 -111 -26 -227 -7 -285 70 -490 250 -674
164 -167 387 -276 657 -324 35 -6 74 -13 88 -16 158 -27 546 -26 720 2 155 25
491 124 524 155 11 10 14 459 3 459 -4 0 -53 -23 -108 -51 -159 -79 -332 -137
-464 -155 -27 -3 -59 -8 -70 -11 -37 -9 -369 -11 -430 -3 -132 18 -200 34
-296 71 -224 86 -348 270 -349 515 0 202 80 363 230 459 107 69 245 117 385
132 111 13 412 9 490 -6 39 -8 77 -15 85 -16 133 -25 260 -70 413 -146 l117
-59 1 28 c5 138 0 435 -7 441 -29 28 -369 129 -504 150 -36 6 -81 13 -100 17
-41 7 -474 16 -481 10z"/>
</g>
</svg>
